<?xml version="1.0" encoding="UTF-8"?>
<svg xmlns="http://www.w3.org/2000/svg" xmlns:xlink="http://www.w3.org/1999/xlink" width="394px" height="80px" viewBox="0 0 295 60" version="1.1">
<g id="surface1">
<path style=" stroke:none;fill-rule:nonzero;fill:rgb(100%,100%,100%);fill-opacity:1;" d="M 196.105469 0.0234375 L 247.492188 0.0234375 L 247.492188 9.523438 L 227.105469 9.523438 L 227.105469 59.503906 L 216.914062 59.503906 L 216.914062 9.523438 L 196.105469 9.523438 Z M 196.105469 0.0234375 "/>
<path style=" stroke:none;fill-rule:nonzero;fill:rgb(100%,100%,100%);fill-opacity:1;" d="M 111.601562 0.0234375 L 111.601562 9.523438 L 70.414062 9.523438 L 70.414062 24.808594 L 103.535156 24.808594 L 103.535156 34.308594 L 70.414062 34.308594 L 70.414062 50.003906 L 111.601562 50.003906 L 111.601562 59.503906 L 60.21875 59.503906 L 60.21875 9.523438 L 60.214844 9.523438 L 60.214844 0.0234375 Z M 111.601562 0.0234375 "/>
<path style=" stroke:none;fill-rule:nonzero;fill:rgb(100%,100%,100%);fill-opacity:1;" d="M 137.257812 0.0507812 L 123.917969 0.0507812 L 171.691406 59.527344 L 185.070312 59.527344 L 161.179688 29.808594 L 185.03125 0.09375 L 171.691406 0.117188 L 154.503906 21.503906 Z M 137.257812 0.0507812 "/>
<path style=" stroke:none;fill-rule:nonzero;fill:rgb(100%,100%,100%);fill-opacity:1;" d="M 150.945312 42.535156 L 144.265625 34.21875 L 123.882812 59.574219 L 137.257812 59.574219 Z M 150.945312 42.535156 "/>
<path style=" stroke:none;fill-rule:evenodd;fill:rgb(100%,100%,100%);fill-opacity:1;" d="M 60.578125 59.503906 L 12.738281 0 L 0 0 L 0 59.480469 L 10.191406 59.480469 L 10.191406 12.714844 L 47.773438 59.503906 Z M 60.578125 59.503906 "/>
<path style=" stroke:none;fill-rule:nonzero;fill:rgb(100%,100%,100%);fill-opacity:1;" d="M 249.78125 59.140625 C 249.035156 59.140625 248.402344 58.882812 247.867188 58.363281 C 247.335938 57.847656 247.074219 57.21875 247.082031 56.476562 C 247.074219 55.753906 247.335938 55.132812 247.867188 54.613281 C 248.402344 54.097656 249.035156 53.835938 249.78125 53.835938 C 250.5 53.835938 251.128906 54.097656 251.660156 54.613281 C 252.199219 55.132812 252.46875 55.753906 252.476562 56.476562 C 252.46875 56.964844 252.34375 57.417969 252.09375 57.820312 C 251.839844 58.226562 251.515625 58.546875 251.105469 58.78125 C 250.707031 59.019531 250.265625 59.140625 249.78125 59.140625 Z M 249.78125 59.140625 "/>
<path style=" stroke:none;fill-rule:nonzero;fill:rgb(100%,100%,100%);fill-opacity:1;" d="M 267.175781 34.082031 L 271.695312 34.082031 L 271.695312 51.511719 C 271.6875 53.117188 271.339844 54.484375 270.664062 55.636719 C 269.980469 56.789062 269.035156 57.667969 267.820312 58.289062 C 266.609375 58.902344 265.195312 59.214844 263.585938 59.214844 C 262.113281 59.214844 260.796875 58.949219 259.621094 58.433594 C 258.449219 57.914062 257.515625 57.136719 256.832031 56.113281 C 256.140625 55.09375 255.804688 53.816406 255.804688 52.289062 L 260.328125 52.289062 C 260.332031 52.957031 260.484375 53.539062 260.777344 54.023438 C 261.066406 54.503906 261.464844 54.875 261.976562 55.132812 C 262.496094 55.390625 263.089844 55.519531 263.757812 55.519531 C 264.484375 55.519531 265.105469 55.371094 265.609375 55.066406 C 266.113281 54.765625 266.5 54.316406 266.769531 53.714844 C 267.03125 53.121094 267.171875 52.386719 267.175781 51.511719 Z M 267.175781 34.082031 "/>
<path style=" stroke:none;fill-rule:nonzero;fill:rgb(100%,100%,100%);fill-opacity:1;" d="M 290.277344 40.898438 C 290.167969 39.84375 289.683594 39.019531 288.839844 38.433594 C 287.992188 37.839844 286.894531 37.546875 285.546875 37.546875 C 284.601562 37.546875 283.785156 37.691406 283.109375 37.96875 C 282.433594 38.253906 281.90625 38.636719 281.546875 39.121094 C 281.1875 39.605469 281.007812 40.15625 280.996094 40.777344 C 280.996094 41.296875 281.121094 41.746094 281.359375 42.121094 C 281.601562 42.503906 281.925781 42.824219 282.347656 43.082031 C 282.761719 43.347656 283.226562 43.566406 283.730469 43.742188 C 284.242188 43.921875 284.753906 44.070312 285.261719 44.191406 L 287.617188 44.773438 C 288.5625 44.988281 289.484375 45.285156 290.359375 45.65625 C 291.234375 46.027344 292.03125 46.496094 292.726562 47.0625 C 293.425781 47.628906 293.976562 48.308594 294.386719 49.105469 C 294.792969 49.90625 295 50.839844 295 51.914062 C 295 53.367188 294.628906 54.640625 293.875 55.746094 C 293.121094 56.84375 292.039062 57.703125 290.613281 58.324219 C 289.199219 58.9375 287.488281 59.25 285.46875 59.25 C 283.523438 59.25 281.824219 58.949219 280.394531 58.351562 C 278.957031 57.757812 277.839844 56.882812 277.03125 55.738281 C 276.222656 54.59375 275.789062 53.195312 275.726562 51.554688 L 280.203125 51.554688 C 280.261719 52.414062 280.539062 53.128906 281.007812 53.707031 C 281.484375 54.28125 282.105469 54.703125 282.867188 54.988281 C 283.632812 55.269531 284.488281 55.414062 285.4375 55.414062 C 286.421875 55.414062 287.292969 55.261719 288.046875 54.96875 C 288.792969 54.675781 289.378906 54.265625 289.800781 53.734375 C 290.226562 53.210938 290.441406 52.589844 290.449219 51.882812 C 290.441406 51.234375 290.25 50.695312 289.875 50.273438 C 289.496094 49.851562 288.972656 49.496094 288.300781 49.210938 C 287.625 48.921875 286.835938 48.664062 285.941406 48.4375 L 283.082031 47.714844 C 281.015625 47.191406 279.378906 46.394531 278.183594 45.324219 C 276.984375 44.253906 276.390625 42.835938 276.390625 41.058594 C 276.390625 39.597656 276.789062 38.316406 277.597656 37.21875 C 278.398438 36.121094 279.496094 35.269531 280.886719 34.664062 C 282.28125 34.050781 283.855469 33.75 285.609375 33.75 C 287.390625 33.75 288.949219 34.050781 290.296875 34.664062 C 291.644531 35.269531 292.699219 36.117188 293.464844 37.191406 C 294.234375 38.269531 294.632812 39.503906 294.65625 40.898438 Z M 290.277344 40.898438 "/>
</g>
</svg>
