<svg width="260" height="70" viewBox="0 0 260 70" fill="none" xmlns="http://www.w3.org/2000/svg">
<path d="M24.8182 70H0.0681818V0.181816H25.0227C32.0455 0.181816 38.0909 1.57954 43.1591 4.375C48.2273 7.14772 52.125 11.1364 54.8523 16.3409C57.6023 21.5455 58.9773 27.7727 58.9773 35.0227C58.9773 42.2955 57.6023 48.5455 54.8523 53.7727C52.125 59 48.2045 63.0114 43.0909 65.8068C38 68.6023 31.9091 70 24.8182 70ZM14.8295 57.3523H24.2045C28.5682 57.3523 32.2386 56.5795 35.2159 55.0341C38.2159 53.4659 40.4659 51.0455 41.9659 47.7727C43.4886 44.4773 44.25 40.2273 44.25 35.0227C44.25 29.8636 43.4886 25.6477 41.9659 22.375C40.4659 19.1023 38.2273 16.6932 35.25 15.1477C32.2727 13.6023 28.6023 12.8295 24.2386 12.8295H14.8295V57.3523ZM78.0085 70H62.1903L86.2926 0.181816H105.315L129.384 70H113.565L96.0767 16.1364H95.5312L78.0085 70ZM77.0199 42.5568H114.384V54.0795H77.0199V42.5568ZM137.787 70V0.181816H165.332C170.605 0.181816 175.105 1.125 178.832 3.01136C182.582 4.875 185.435 7.52273 187.389 10.9545C189.366 14.3636 190.355 18.375 190.355 22.9886C190.355 27.625 189.355 31.6136 187.355 34.9545C185.355 38.2727 182.457 40.8182 178.662 42.5909C174.889 44.3636 170.321 45.25 164.957 45.25H146.514V33.3864H162.571C165.389 33.3864 167.73 33 169.594 32.2273C171.457 31.4545 172.844 30.2955 173.753 28.75C174.685 27.2045 175.151 25.2841 175.151 22.9886C175.151 20.6705 174.685 18.7159 173.753 17.125C172.844 15.5341 171.446 14.3295 169.56 13.5114C167.696 12.6705 165.344 12.25 162.503 12.25H152.548V70H137.787ZM175.491 38.2273L192.844 70H176.548L159.571 38.2273H175.491ZM200.787 70V0.181816H215.548V30.9659H216.469L241.594 0.181816H259.287L233.378 31.4432L259.594 70H241.935L222.81 41.2955L215.548 50.1591V70H200.787Z" fill="black"/>
</svg>
